<svg width="68px" height="68px" viewBox="0 0 68 68" version="1.1" xmlns="http://www.w3.org/2000/svg" xmlns:xlink="http://www.w3.org/1999/xlink">
    <!-- Generator: Sketch 50.2 (55047) - http://www.bohemiancoding.com/sketch -->
    <desc>Created with Sketch.</desc>
    <defs></defs>
    <g id="COMPONENTS" stroke="none" stroke-width="1" fill="none" fill-rule="evenodd" stroke-linejoin="round">
        <g id="COMPONENT_Teasers_Category_EXAMPLE" transform="translate(-303.000000, -182.000000)" stroke="#0064FE" stroke-width="2">
            <g id="Group-1145" transform="translate(303.000000, 181.000000)">
                <path d="M65.1387,3.876 C67.5897,6.33 69.2817,25.257 56.6877,37.851 C44.0907,50.445 26.9577,50.547 26.9577,50.547 L18.4677,42.063 C18.4677,42.063 18.7347,24.822 31.1997,12.363 C43.6617,-0.099 62.6877,1.425 65.1387,3.876 L65.1387,3.876 Z" id="Stroke-1706"></path>
                <polygon id="Stroke-1707" points="26.9562 50.5458 18.4692 67.5168 13.5762 56.3268 1.5012 50.5458 18.4692 42.0618"></polygon>
                <path d="M60.0762,33.8262 C60.0762,33.8262 60.0312,43.3902 46.0422,57.3762 L37.5402,48.7962" id="Stroke-1708"></path>
                <path d="M19.5294,34.6347 L11.0454,26.1507 C11.0454,26.1507 13.7364,13.1907 30.0774,12.8247" id="Stroke-1709"></path>
                <path d="M50.2002,12.2724 C51.3762,13.4484 51.3762,15.3444 50.2002,16.5174 C49.0302,17.6904 47.1312,17.6904 45.9582,16.5174 C44.7852,15.3444 44.7852,13.4484 45.9582,12.2724 C47.1312,11.0994 49.0302,11.0994 50.2002,12.2724 L50.2002,12.2724 Z" id="Stroke-1710"></path>
            </g>
        </g>
    </g>
</svg>