<?xml version="1.0" encoding="UTF-8"?>
<svg width="72px" height="72px" viewBox="0 0 72 72" version="1.1" xmlns="http://www.w3.org/2000/svg" xmlns:xlink="http://www.w3.org/1999/xlink">
    <title>soda</title>
    <g id="soda" stroke="none" stroke-width="1" fill="none" fill-rule="evenodd">
        <g id="Group" transform="translate(4.000000, 2.000000)">
            <g id="Group-1067" transform="translate(0.000000, 16.854701)" stroke="#0064FE" stroke-linecap="round" stroke-linejoin="round" stroke-width="2">
                <polygon id="Stroke-1210" points="26.7849566 51.1452991 3.82642237 51.1452991 0 47.3094017 0 12.7863248 7.65284474 5.11452991 22.9585342 5.11452991 30.611379 12.7863248 30.611379 47.3094017"></polygon>
                <line x1="3.82642237" y1="5.11452991" x2="26.7849566" y2="5.11452991" id="Stroke-1211"></line>
                <line x1="11.4792671" y1="5.11452991" x2="6.37737062" y2="0" id="Stroke-1212"></line>
            </g>
            <path d="M53.3916211,57.6521739 C52.5550747,57.6521739 51.8761384,58.3144348 51.8761384,59.1304348 C51.8761384,59.9464348 52.5550747,60.6086957 53.3916211,60.6086957 C54.2281676,60.6086957 54.9071038,59.9464348 54.9071038,59.1304348 C54.9071038,58.3144348 54.2281676,57.6521739 53.3916211,57.6521739" id="Fill-9346" fill="#0064FE"></path>
            <path d="M47.3296903,48.7826087 C46.4931439,48.7826087 45.8142077,49.4448696 45.8142077,50.2608696 C45.8142077,51.0768696 46.4931439,51.7391304 47.3296903,51.7391304 C48.1662368,51.7391304 48.845173,51.0768696 48.845173,50.2608696 C48.845173,49.4448696 48.1662368,48.7826087 47.3296903,48.7826087" id="Fill-9347" fill="#0064FE"></path>
            <path d="M54.9071038,42.8695652 C54.0705574,42.8695652 53.3916211,43.5318261 53.3916211,44.3478261 C53.3916211,45.1638261 54.0705574,45.826087 54.9071038,45.826087 C55.7436503,45.826087 56.4225865,45.1638261 56.4225865,44.3478261 C56.4225865,43.5318261 55.7436503,42.8695652 54.9071038,42.8695652" id="Fill-9348" fill="#0064FE"></path>
            <path d="M44.298725,36.9565217 C43.4621785,36.9565217 42.7832423,37.6187826 42.7832423,38.4347826 C42.7832423,39.2507826 43.4621785,39.9130435 44.298725,39.9130435 C45.1352714,39.9130435 45.8142077,39.2507826 45.8142077,38.4347826 C45.8142077,37.6187826 45.1352714,36.9565217 44.298725,36.9565217" id="Fill-9349" fill="#0064FE"></path>
            <path d="M53.3916211,31.0434783 C52.5550747,31.0434783 51.8761384,31.7057391 51.8761384,32.5217391 C51.8761384,33.3377391 52.5550747,34 53.3916211,34 C54.2281676,34 54.9071038,33.3377391 54.9071038,32.5217391 C54.9071038,31.7057391 54.2281676,31.0434783 53.3916211,31.0434783" id="Fill-9350" fill="#0064FE"></path>
            <path d="M45.8142077,28.0869565 C44.9776612,28.0869565 44.298725,28.7492174 44.298725,29.5652174 C44.298725,30.3812174 44.9776612,31.0434783 45.8142077,31.0434783 C46.6507541,31.0434783 47.3296903,30.3812174 47.3296903,29.5652174 C47.3296903,28.7492174 46.6507541,28.0869565 45.8142077,28.0869565" id="Fill-9351" fill="#0064FE"></path>
            <path d="M54.9071038,5.91304348 C54.9071038,20.6956522 64,23.6521739 64,35.4782609 C64,47.3043478 59.4535519,49.1433043 59.4535519,56.3542609 C59.4535519,63.5652174 66.1065209,68 60.2537268,68 L40.4675847,68 C34.6147905,68 41.2677596,63.5652174 41.2677596,56.3542609 C41.2677596,49.1433043 36.7213115,47.3043478 36.7213115,35.4782609 C36.7213115,23.6521739 45.8142077,20.6956522 45.8142077,5.91304348" id="Stroke-9352" stroke="#0064FE" stroke-width="2" stroke-linejoin="round"></path>
            <line x1="41.2677596" y1="22.173913" x2="59.4535519" y2="22.173913" id="Stroke-9353" stroke="#0064FE" stroke-width="2" stroke-linecap="round" stroke-linejoin="round"></line>
            <path d="M57.9380692,7.39130435 L53.3916211,5.91304348 L50.3606557,7.39130435 L47.3296903,5.91304348 L42.7832423,7.39130435 L42.7832423,2.95652174 C42.7832423,1.32452174 44.1380838,0 45.8142077,0 L54.9071038,0 C56.5832277,0 57.9380692,1.32452174 57.9380692,2.95652174 L57.9380692,7.39130435 L57.9380692,7.39130435 Z" id="Stroke-9354" stroke="#0064FE" stroke-width="2" stroke-linecap="round" stroke-linejoin="round"></path>
            <path d="M16.8211722,7.9042735 C15.9846257,7.9042735 15.3056895,8.56653437 15.3056895,9.38253437 C15.3056895,10.1985344 15.9846257,10.8607952 16.8211722,10.8607952 C17.6577186,10.8607952 18.3366549,10.1985344 18.3366549,9.38253437 C18.3366549,8.56653437 17.6577186,7.9042735 16.8211722,7.9042735" id="Fill-9351-Copy" fill="#0064FE"></path>
            <path d="M21.8220782,10.4615385 C20.9855318,10.4615385 20.3065955,11.1237993 20.3065955,11.9397993 C20.3065955,12.7557993 20.9855318,13.4180602 21.8220782,13.4180602 C22.6586247,13.4180602 23.3375609,12.7557993 23.3375609,11.9397993 C23.3375609,11.1237993 22.6586247,10.4615385 21.8220782,10.4615385" id="Fill-9350-Copy" fill="#0064FE"></path>
            <path d="M18.7911128,15.5760684 C17.9545664,15.5760684 17.2756301,16.2383292 17.2756301,17.0543292 C17.2756301,17.8703292 17.9545664,18.5325901 18.7911128,18.5325901 C19.6276593,18.5325901 20.3065955,17.8703292 20.3065955,17.0543292 C20.3065955,16.2383292 19.6276593,15.5760684 18.7911128,15.5760684" id="Fill-9350-Copy-2" fill="#0064FE"></path>
        </g>
    </g>
</svg>