<?xml version="1.0" encoding="UTF-8"?>
<svg width="72px" height="72px" viewBox="0 0 72 72" version="1.1" xmlns="http://www.w3.org/2000/svg" xmlns:xlink="http://www.w3.org/1999/xlink">
    <title>toys</title>
    <g id="toys" stroke="none" stroke-width="1" fill="none" fill-rule="evenodd">
        <g id="Group-787" transform="translate(4.000000, 2.000000)">
            <path d="M58.1805653,59.1304348 C58.1805653,64.0293913 54.2737127,68 49.4534187,68 C44.6331248,68 40.7262722,64.0293913 40.7262722,59.1304348 C40.7262722,54.2314783 44.6331248,50.2608696 49.4534187,50.2608696 C54.2737127,50.2608696 58.1805653,54.2314783 58.1805653,59.1304348 L58.1805653,59.1304348 Z" id="Stroke-5850" stroke="#9BC2FD" stroke-width="2" stroke-linecap="round" stroke-linejoin="round"></path>
            <path d="M23.2719792,59.1304348 C23.2719792,64.0293913 19.3651266,68 14.5448327,68 C9.72453876,68 5.81768617,64.0293913 5.81768617,59.1304348 C5.81768617,54.2314783 9.72453876,50.2608696 14.5448327,50.2608696 C19.3651266,50.2608696 23.2719792,54.2314783 23.2719792,59.1304348 L23.2719792,59.1304348 Z" id="Stroke-5851" stroke="#9BC2FD" stroke-width="2" stroke-linecap="round" stroke-linejoin="round"></path>
            <path d="M47.9988943,16.2608696 C47.9988943,25.2427826 40.8368161,32.5217391 31.9991257,32.5217391 C23.1643444,32.5217391 15.9993571,25.2427826 15.9993571,16.2608696 C15.9993571,7.27895652 23.1643444,0 31.9991257,0 C40.8368161,0 47.9988943,7.27895652 47.9988943,16.2608696 L47.9988943,16.2608696 Z" id="Stroke-5852" stroke="#9BC2FD" stroke-width="2" stroke-linecap="round" stroke-linejoin="round"></path>
            <path d="M41.4535344,22.9130435 C41.4535344,28.22 37.2208684,32.5217391 31.9991257,32.5217391 C26.7773831,32.5217391 22.544717,28.22 22.544717,22.9130435 C22.544717,17.606087 26.7773831,13.3043478 31.9991257,13.3043478 C37.2208684,13.3043478 41.4535344,17.606087 41.4535344,22.9130435 L41.4535344,22.9130435 Z" id="Stroke-5853" stroke="#9BC2FD" stroke-width="2" stroke-linecap="round" stroke-linejoin="round"></path>
            <path d="M44.0187337,5.27502609 C44.8565398,3.05467826 46.9772364,1.47885217 49.4528369,1.47885217 C52.6673359,1.47885217 55.2709346,4.12493913 55.2709346,7.39189565 C55.2709346,10.6558957 52.6673359,13.3049391 49.4528369,13.3049391 C48.9088448,13.3049391 48.3793979,13.225113 47.8790415,13.0861565" id="Stroke-5854" stroke="#9BC2FD" stroke-width="2" stroke-linecap="round" stroke-linejoin="round"></path>
            <path d="M16.076156,13.0965043 C15.5903448,13.2325043 15.0754432,13.3034609 14.5459963,13.3034609 C11.3314973,13.3034609 8.72789863,10.6573739 8.72789863,7.39041739 C8.72789863,4.12641739 11.3314973,1.47737391 14.5459963,1.47737391 C17.1030502,1.47737391 19.2819278,3.15963478 20.0586439,5.49528696" id="Stroke-5855" stroke="#9BC2FD" stroke-width="2" stroke-linecap="round" stroke-linejoin="round"></path>
            <path d="M33.4536501,19.2173913 C33.4536501,20.0333913 32.8020232,20.6956522 31.9991257,20.6956522 C31.1962282,20.6956522 30.5446013,20.0333913 30.5446013,19.2173913 C30.5446013,18.4013913 31.1962282,17.7391304 31.9991257,17.7391304 C32.8020232,17.7391304 33.4536501,18.4013913 33.4536501,19.2173913 L33.4536501,19.2173913 Z" id="Stroke-5856" stroke="#9BC2FD" stroke-width="2" stroke-linecap="round" stroke-linejoin="round"></path>
            <path d="M23.0447825,45.826087 C24.7378489,42.568 27.4956272,39.9130435 31.9988348,39.9130435 C36.5107696,39.9130435 39.2714569,42.5768696 40.9645233,45.8408696" id="Stroke-5857" stroke="#9BC2FD" stroke-width="2" stroke-linecap="round" stroke-linejoin="round"></path>
            <path d="M41.1210302,61.8820696 C38.5319767,63.8747652 35.3872949,65.0425913 31.998253,65.0425913 C28.6964826,65.0425913 25.624527,63.9309391 23.0732912,62.0298957" id="Stroke-5858" stroke="#9BC2FD" stroke-width="2" stroke-linecap="round" stroke-linejoin="round"></path>
            <path d="M24.7265036,7.39130435 C23.9236061,7.39130435 23.2719792,8.05356522 23.2719792,8.86956522 C23.2719792,9.68556522 23.9236061,10.3478261 24.7265036,10.3478261 C25.5294011,10.3478261 26.181028,9.68556522 26.181028,8.86956522 C26.181028,8.05356522 25.5294011,7.39130435 24.7265036,7.39130435" id="Fill-5859" fill="#9BC2FD"></path>
            <path d="M39.2717478,7.39130435 C38.4688503,7.39130435 37.8172234,8.05356522 37.8172234,8.86956522 C37.8172234,9.68556522 38.4688503,10.3478261 39.2717478,10.3478261 C40.0746453,10.3478261 40.7262722,9.68556522 40.7262722,8.86956522 C40.7262722,8.05356522 40.0746453,7.39130435 39.2717478,7.39130435" id="Fill-5860" fill="#9BC2FD"></path>
            <path d="M25.4622021,31.1070435 C24.1822206,31.7870435 22.8818758,32.9814783 21.8171639,33.9985217 L8.88353274,26.9028696 C6.15193588,25.1821739 2.56507866,26.0395652 0.87201224,28.8186957 C-0.818145135,31.591913 0.0225699795,35.2343478 2.75416684,36.9550435 L16.1474277,45.0381739 C15.9467033,46.7706957 15.929249,48.3021739 16.2172449,50.2475652" id="Stroke-5861" stroke="#9BC2FD" stroke-width="2" stroke-linecap="round" stroke-linejoin="round"></path>
            <path d="M38.5104497,31.1185739 C39.7904312,31.8015304 41.1169575,32.9811826 42.1816694,34.0011826 L55.1153005,26.9025739 C57.8468974,25.1818783 61.4337546,26.0392696 63.126821,28.8184 C64.8198874,31.5916174 63.9762633,35.2370087 61.2417574,36.9577043 L47.8514056,45.0378783 C48.0492209,46.7704 48.0724933,48.3018783 47.7815884,50.2472696" id="Stroke-5862" stroke="#9BC2FD" stroke-width="2" stroke-linecap="round" stroke-linejoin="round"></path>
        </g>
    </g>
</svg>