<?xml version="1.0" encoding="UTF-8"?>
<svg width="72px" height="72px" viewBox="0 0 72 72" version="1.1" xmlns="http://www.w3.org/2000/svg" xmlns:xlink="http://www.w3.org/1999/xlink">
    <title>officesupplies_01</title>
    <g id="officesupplies_01" stroke="none" stroke-width="1" fill="none" fill-rule="evenodd" stroke-linecap="round" stroke-linejoin="round">
        <g id="Group-126-Copy" transform="translate(3.000000, 3.000000)" stroke="#9BC2FD" stroke-width="2">
            <polygon id="Stroke-1492" points="8.60869565 66 43.0434783 66 43.0434783 17.2173913 8.60869565 17.2173913"></polygon>
            <path d="M8.60869565,45.9130435 L0,45.9130435 L0,8.60869565 C0,3.85382609 3.85382609,0 8.60869565,0 C13.3635652,0 17.2173913,3.85382609 17.2173913,8.60869565 C17.2173913,13.3635652 13.3635652,17.2173913 8.60869565,17.2173913 L8.60869565,11.4782609 L16.6205217,11.4782609" id="Stroke-1493"></path>
            <path d="M43.0434783,17.2173913 C47.7983478,17.2173913 51.6521739,13.3635652 51.6521739,8.60869565 C51.6521739,3.85382609 47.7983478,0 43.0434783,0 L8.60869565,0" id="Stroke-1494"></path>
            <line x1="25.826087" y1="28.6956522" x2="37.3043478" y2="28.6956522" id="Stroke-1495"></line>
            <line x1="25.826087" y1="40.173913" x2="37.3043478" y2="40.173913" id="Stroke-1496"></line>
            <line x1="25.826087" y1="51.6521739" x2="37.3043478" y2="51.6521739" id="Stroke-1497"></line>
            <polyline id="Stroke-1498" points="14.3478261 27.2608696 15.7826087 28.6956522 21.5217391 22.9565217"></polyline>
            <polyline id="Stroke-1499" points="14.3478261 38.7391304 15.7826087 40.173913 21.5217391 34.4347826"></polyline>
            <path d="M66,61.6956522 C66,64.0745217 64.0716522,66 61.6956522,66 C59.3196522,66 57.3913043,64.0745217 57.3913043,61.6956522 L57.3913043,20.0869565 C57.3913043,17.7109565 59.3196522,15.7826087 61.6956522,15.7826087 C64.0716522,15.7826087 66,17.7109565 66,20.0869565 L66,61.6956522 L66,61.6956522 Z" id="Stroke-1500"></path>
            <line x1="57.3913043" y1="60.2608696" x2="66" y2="60.2608696" id="Stroke-1501"></line>
            <line x1="57.3913043" y1="40.173913" x2="66" y2="40.173913" id="Stroke-1502"></line>
            <path d="M51.6521739,44.4782609 L51.6521739,22.9565217 C51.6521739,20.5805217 53.5805217,18.6521739 55.9565217,18.6521739 L57.638087,18.6521739" id="Stroke-1503"></path>
        </g>
    </g>
</svg>