<?xml version="1.0" encoding="UTF-8"?>
<svg width="72px" height="72px" viewBox="0 0 72 72" version="1.1" xmlns="http://www.w3.org/2000/svg" xmlns:xlink="http://www.w3.org/1999/xlink">
    <title>tv</title>
    <g id="tv" stroke="none" stroke-width="1" fill="none" fill-rule="evenodd" stroke-linejoin="round">
        <g id="Group-577" transform="translate(4.000000, 9.000000)" stroke="#9BC2FD" stroke-width="2">
            <path d="M52.8695652,54 C48.0250435,51.4050213 40.3422609,49.73946 32,49.73946 C23.6577391,49.73946 15.9749565,51.4050213 11.1304348,54" id="Stroke-5931" stroke-linecap="round"></path>
            <path d="M64,39.791568 C64,41.3548081 62.7506087,42.6338228 61.2173913,42.6338228 L2.7826087,42.6338228 C1.25217391,42.6338228 0,41.3548081 0,39.791568 L0,2.84225486 C0,1.27901468 1.25217391,0 2.7826087,0 L61.2173913,0 C62.7506087,0 64,1.27901468 64,2.84225486 L64,39.791568 L64,39.791568 Z" id="Stroke-5932"></path>
            <polygon id="Stroke-5933" points="5.56521739 36.9493131 58.4347826 36.9493131 58.4347826 5.68450971 5.56521739 5.68450971"></polygon>
            <line x1="27.826087" y1="42.6338228" x2="27.826087" y2="49.8787305" id="Stroke-5934"></line>
            <line x1="36.173913" y1="42.6338228" x2="36.173913" y2="49.8787305" id="Stroke-5935"></line>
        </g>
    </g>
</svg>