<svg xmlns="http://www.w3.org/2000/svg" width="64" height="64" viewBox="0 0 64 64">
  <g fill="#0064FE" transform="translate(2 13)">
    <path d="M59.5,31.6666667 C59.5,34.8653395 56.9164535,37.4833333 53.75,37.4833333 L6.25,37.4833333 C3.08354651,37.4833333 0.5,34.8653395 0.5,31.6666667 L0.5,6.33333333 C0.5,3.13466046 3.08354651,0.516666667 6.25,0.516666667 L53.75,0.516666667 C56.9164535,0.516666667 59.5,3.13466046 59.5,6.33333333 L59.5,31.6666667 Z M58,31.6666667 L58,6.33333333 C58,3.95867287 56.0835465,2.01666667 53.75,2.01666667 L6.25,2.01666667 C3.91645349,2.01666667 2,3.95867287 2,6.33333333 L2,31.6666667 C2,34.0413271 3.91645349,35.9833333 6.25,35.9833333 L53.75,35.9833333 C56.0835465,35.9833333 58,34.0413271 58,31.6666667 Z"/>
    <path d="M1.25 12.15L58.75 12.15C59.1642136 12.15 59.5 11.8142136 59.5 11.4 59.5 10.9857864 59.1642136 10.65 58.75 10.65L1.25 10.65C.835786438 10.65.5 10.9857864.5 11.4.5 11.8142136.835786438 12.15 1.25 12.15zM51.25 18.25L43.75 18.25C43.3357864 18.25 43 18.5857864 43 19 43 19.4142136 43.3357864 19.75 43.75 19.75L51.25 19.75C51.6642136 19.75 52 19.4142136 52 19 52 18.5857864 51.6642136 18.25 51.25 18.25zM28.75 18.25L8.75 18.25C8.33578644 18.25 8 18.5857864 8 19 8 19.4142136 8.33578644 19.75 8.75 19.75L28.75 19.75C29.1642136 19.75 29.5 19.4142136 29.5 19 29.5 18.5857864 29.1642136 18.25 28.75 18.25zM16.25 23.3166667L8.75 23.3166667C8.33578644 23.3166667 8 23.6524531 8 24.0666667 8 24.4808802 8.33578644 24.8166667 8.75 24.8166667L16.25 24.8166667C16.6642136 24.8166667 17 24.4808802 17 24.0666667 17 23.6524531 16.6642136 23.3166667 16.25 23.3166667z"/>
  </g>
</svg>
