<?xml version="1.0" encoding="UTF-8"?>
<svg width="64px" height="64px" viewBox="0 0 64 64" version="1.1" xmlns="http://www.w3.org/2000/svg" xmlns:xlink="http://www.w3.org/1999/xlink">
    <title>group</title>
    <g id="group" stroke="none" stroke-width="1" fill="none" fill-rule="evenodd" stroke-linejoin="round">
        <g transform="translate(8.000000, 10.000000)" stroke="#0064FE" stroke-width="1.5">
            <path d="M29.2173913,5.23804535 C29.2173913,8.1315416 26.882087,10.4760907 24,10.4760907 C21.117913,10.4760907 18.7826087,8.1315416 18.7826087,5.23804535 C18.7826087,2.3445491 21.117913,0 24,0 C26.882087,0 29.2173913,2.3445491 29.2173913,5.23804535 L29.2173913,5.23804535 Z" id="Stroke-3978"></path>
            <path d="M41.7391304,7.33326349 C41.7391304,9.06810411 40.3366957,10.4760907 38.6086957,10.4760907 C36.8806957,10.4760907 35.4782609,9.06810411 35.4782609,7.33326349 C35.4782609,5.59842287 36.8806957,4.19043628 38.6086957,4.19043628 C40.3366957,4.19043628 41.7391304,5.59842287 41.7391304,7.33326349 L41.7391304,7.33326349 Z" id="Stroke-3979"></path>
            <path d="M12.5217391,7.33326349 C12.5217391,9.06810411 11.1193043,10.4760907 9.39130435,10.4760907 C7.66330435,10.4760907 6.26086957,9.06810411 6.26086957,7.33326349 C6.26086957,5.59842287 7.66330435,4.19043628 9.39130435,4.19043628 C11.1193043,4.19043628 12.5217391,5.59842287 12.5217391,7.33326349 L12.5217391,7.33326349 Z" id="Stroke-3980"></path>
            <path d="M34.4347826,36.0339806 C42.4653913,36.7128313 48,38.150151 48,39.8095637 C48,42.1226845 37.2563478,44 24,44 C10.7457391,44 0,42.1226845 0,39.8095637 C0,38.1543414 5.49913043,36.7233074 13.4775652,36.0423615" id="Stroke-3981" stroke-linecap="round"></path>
            <path d="M29.2173913,33.5234903 L18.7826087,33.5234903 L18.7826087,19.9045723 C18.7826087,17.0110761 21.117913,14.666527 24,14.666527 C26.882087,14.666527 29.2173913,17.0110761 29.2173913,19.9045723 L29.2173913,33.5234903 L29.2173913,33.5234903 Z" id="Stroke-3982"></path>
            <path d="M41.7391304,29.333054 L35.4782609,29.333054 L35.4782609,17.8093542 C35.4782609,16.0745136 36.8806957,14.666527 38.6086957,14.666527 C40.3366957,14.666527 41.7391304,16.0745136 41.7391304,17.8093542 L41.7391304,29.333054 L41.7391304,29.333054 Z" id="Stroke-3983"></path>
            <path d="M12.5217391,29.333054 L6.26086957,29.333054 L6.26086957,17.8093542 C6.26086957,16.0745136 7.66330435,14.666527 9.39130435,14.666527 C11.1193043,14.666527 12.5217391,16.0745136 12.5217391,17.8093542 L12.5217391,29.333054 L12.5217391,29.333054 Z" id="Stroke-3984"></path>
        </g>
    </g>
</svg>