
<svg width="54px" height="48px" viewBox="0 0 54 48" version="1.1" xmlns="http://www.w3.org/2000/svg" xmlns:xlink="http://www.w3.org/1999/xlink">
    <!-- Generator: Sketch 51.3 (57544) - http://www.bohemiancoding.com/sketch -->
    <desc>Created with Sketch.</desc>
    <defs></defs>
    <g id="PAGE_Assortment" stroke="none" stroke-width="1" fill="none" fill-rule="evenodd">
        <g id="PAGE_Assortment-overview-(Meat-&amp;-Poultry)" transform="translate(-372.000000, -5055.000000)">
            <g id="Group-41-Copy" transform="translate(0.000000, 4622.000000)">
                <g id="Group-40" transform="translate(0.000000, 320.000000)">
                    <g id="Group-618" transform="translate(373.000000, 114.000000)">
                        <polyline id="Stroke-6549" stroke="#0064FE" stroke-width="1.5" stroke-linecap="round" stroke-linejoin="round" points="47.3795 18.0580571 47.3795 45.8569143 4.6295 45.8569143 4.6295 18.0580571"></polyline>
                        <polygon id="Stroke-6550" stroke="#0064FE" stroke-width="1.5" stroke-linecap="round" stroke-linejoin="round" points="9.1295 39 27.1295 39 27.1295 25.2857143 9.1295 25.2857143"></polygon>
                        <polygon id="Stroke-6551" stroke="#0064FE" stroke-width="1.5" stroke-linecap="round" stroke-linejoin="round" points="31.6295 45.8571429 42.8795 45.8571429 42.8795 25.2857143 31.6295 25.2857143"></polygon>
                        <polygon id="Stroke-6552" stroke="#0064FE" stroke-width="1.5" stroke-linecap="round" stroke-linejoin="round" points="47.3795 0.142857143 4.6295 0.142857143 0.1295 9.28571429 51.8795 9.28571429"></polygon>
                        <path d="M51.8795,11.5714286 C51.8795,16.8331429 45.6695,21.2354286 40.6295,16.1428571 C37.358,21.4228571 30.149,22.3828571 26.0045,17.6057143 C21.815,22.4445714 14.60825,21.3497143 11.3795,16.1428571 C6.398,21.1851429 0.1295,16.8902857 0.1295,11.5714286 L0.1295,9.28571429 L51.8795,9.28571429 L51.8795,11.5714286 L51.8795,11.5714286 Z" id="Stroke-6553" stroke="#0064FE" stroke-width="1.5" stroke-linecap="round" stroke-linejoin="round"></path>
                        <polyline id="Stroke-6554" stroke="#0064FE" stroke-width="1.5" stroke-linecap="round" stroke-linejoin="round" points="11.3795 16.1428571 11.3795 9.28571429 13.6295 0.142857143"></polyline>
                        <polyline id="Stroke-6555" stroke="#0064FE" stroke-width="1.5" stroke-linecap="round" stroke-linejoin="round" points="26.0045 17.6182857 26.0045 9.28457143 26.0045 0.141714286"></polyline>
                        <polyline id="Stroke-6556" stroke="#0064FE" stroke-width="1.5" stroke-linecap="round" stroke-linejoin="round" points="40.6295 16.1428571 40.6295 9.28571429 38.3795 0.142857143"></polyline>
                        <path d="M38.3795,35.5714286 C37.7585,35.5714286 37.2545,36.0834286 37.2545,36.7142857 C37.2545,37.3474286 37.7585,37.8571429 38.3795,37.8571429 C39.0005,37.8571429 39.5045,37.3474286 39.5045,36.7142857 C39.5045,36.0834286 39.0005,35.5714286 38.3795,35.5714286" id="Fill-6557" fill="#0064FE"></path>
                    </g>
                </g>
            </g>
        </g>
    </g>
</svg>